<mxfile host="app.diagrams.net" modified="2023-08-29T20:06:25.355Z" agent="Mozilla/5.0 (Windows NT 10.0; Win64; x64) AppleWebKit/537.36 (KHTML, like Gecko) Chrome/116.0.0.0 Safari/537.36" etag="NOihX3zokjF04wvMd6Mh" version="21.7.0" type="github">
  <diagram name="Page-1" id="OV1f8F7rv34wshl9lihm">
    <mxGraphModel dx="1444" dy="915" grid="1" gridSize="10" guides="1" tooltips="1" connect="1" arrows="1" fold="1" page="1" pageScale="1" pageWidth="850" pageHeight="1100" math="0" shadow="0">
      <root>
        <mxCell id="0" />
        <mxCell id="1" parent="0" />
        <mxCell id="A418blZApA_BEnXzXfuT-7" style="edgeStyle=orthogonalEdgeStyle;rounded=0;orthogonalLoop=1;jettySize=auto;html=1;exitX=0.75;exitY=0;exitDx=0;exitDy=0;entryX=0.5;entryY=1;entryDx=0;entryDy=0;" edge="1" parent="1" source="A418blZApA_BEnXzXfuT-3" target="A418blZApA_BEnXzXfuT-5">
          <mxGeometry relative="1" as="geometry" />
        </mxCell>
        <mxCell id="A418blZApA_BEnXzXfuT-8" style="edgeStyle=orthogonalEdgeStyle;rounded=0;orthogonalLoop=1;jettySize=auto;html=1;exitX=0.25;exitY=0;exitDx=0;exitDy=0;entryX=0.444;entryY=0.983;entryDx=0;entryDy=0;entryPerimeter=0;" edge="1" parent="1" source="A418blZApA_BEnXzXfuT-3" target="A418blZApA_BEnXzXfuT-6">
          <mxGeometry relative="1" as="geometry" />
        </mxCell>
        <mxCell id="A418blZApA_BEnXzXfuT-3" value="&lt;b&gt;Sistema: &lt;/b&gt;Entidad&amp;nbsp; Entidad compuesta por elementos interconectados que trabajan juntos para lograr un objetivo común." style="rounded=1;whiteSpace=wrap;html=1;fillColor=#0050ef;fontColor=#ffffff;strokeColor=#001DBC;" vertex="1" parent="1">
          <mxGeometry x="785" y="150" width="150" height="80" as="geometry" />
        </mxCell>
        <mxCell id="A418blZApA_BEnXzXfuT-5" value="&lt;b&gt;Relación: &lt;/b&gt;Las conexiones y las interacciones entre los elementos de un sistema" style="rounded=1;whiteSpace=wrap;html=1;fillColor=#0050ef;fontColor=#ffffff;strokeColor=#001DBC;" vertex="1" parent="1">
          <mxGeometry x="880" y="40" width="130" height="70" as="geometry" />
        </mxCell>
        <mxCell id="A418blZApA_BEnXzXfuT-38" style="edgeStyle=orthogonalEdgeStyle;rounded=0;orthogonalLoop=1;jettySize=auto;html=1;exitX=1;exitY=0.5;exitDx=0;exitDy=0;entryX=0;entryY=0.5;entryDx=0;entryDy=0;" edge="1" parent="1" source="A418blZApA_BEnXzXfuT-6" target="A418blZApA_BEnXzXfuT-5">
          <mxGeometry relative="1" as="geometry" />
        </mxCell>
        <mxCell id="A418blZApA_BEnXzXfuT-6" value="&lt;b&gt;Elemento: &lt;/b&gt;Partes o componentes individuales dentro de un sistema" style="rounded=1;whiteSpace=wrap;html=1;fillColor=#0050ef;fontColor=#ffffff;strokeColor=#001DBC;" vertex="1" parent="1">
          <mxGeometry x="710" y="40" width="130" height="70" as="geometry" />
        </mxCell>
        <mxCell id="A418blZApA_BEnXzXfuT-15" style="edgeStyle=orthogonalEdgeStyle;rounded=0;orthogonalLoop=1;jettySize=auto;html=1;exitX=1;exitY=0.25;exitDx=0;exitDy=0;entryX=0;entryY=0.5;entryDx=0;entryDy=0;" edge="1" parent="1" source="A418blZApA_BEnXzXfuT-10" target="A418blZApA_BEnXzXfuT-13">
          <mxGeometry relative="1" as="geometry" />
        </mxCell>
        <mxCell id="A418blZApA_BEnXzXfuT-16" style="edgeStyle=orthogonalEdgeStyle;rounded=0;orthogonalLoop=1;jettySize=auto;html=1;exitX=1;exitY=0.75;exitDx=0;exitDy=0;entryX=0;entryY=0.5;entryDx=0;entryDy=0;" edge="1" parent="1" source="A418blZApA_BEnXzXfuT-10" target="A418blZApA_BEnXzXfuT-14">
          <mxGeometry relative="1" as="geometry" />
        </mxCell>
        <mxCell id="A418blZApA_BEnXzXfuT-10" value="&lt;b&gt;AMBIENTE: &lt;/b&gt;El contexto o el entorno en el que opera un sistema" style="rounded=1;whiteSpace=wrap;html=1;fillColor=#0050ef;fontColor=#ffffff;strokeColor=#001DBC;" vertex="1" parent="1">
          <mxGeometry x="1000" y="297.5" width="160" height="75" as="geometry" />
        </mxCell>
        <mxCell id="A418blZApA_BEnXzXfuT-39" style="edgeStyle=orthogonalEdgeStyle;rounded=0;orthogonalLoop=1;jettySize=auto;html=1;exitX=0.5;exitY=1;exitDx=0;exitDy=0;entryX=0.5;entryY=0;entryDx=0;entryDy=0;" edge="1" parent="1" source="A418blZApA_BEnXzXfuT-13" target="A418blZApA_BEnXzXfuT-14">
          <mxGeometry relative="1" as="geometry" />
        </mxCell>
        <mxCell id="A418blZApA_BEnXzXfuT-13" value="&lt;b&gt;Entorno: &lt;/b&gt;Todo lo que rodea al sistema y tiene potencial de afectarlo" style="rounded=1;whiteSpace=wrap;html=1;fillColor=#0050ef;fontColor=#ffffff;strokeColor=#001DBC;" vertex="1" parent="1">
          <mxGeometry x="1200" y="250" width="130" height="70" as="geometry" />
        </mxCell>
        <mxCell id="A418blZApA_BEnXzXfuT-14" value="&lt;b&gt;Frontera: &lt;/b&gt;Limite que define la separación&amp;nbsp;entre el sistema y su entorno" style="rounded=1;whiteSpace=wrap;html=1;fillColor=#0050ef;fontColor=#ffffff;strokeColor=#001DBC;" vertex="1" parent="1">
          <mxGeometry x="1200" y="357.5" width="130" height="72.5" as="geometry" />
        </mxCell>
        <mxCell id="A418blZApA_BEnXzXfuT-18" style="edgeStyle=orthogonalEdgeStyle;rounded=0;orthogonalLoop=1;jettySize=auto;html=1;exitX=1;exitY=0.5;exitDx=0;exitDy=0;entryX=0;entryY=0.5;entryDx=0;entryDy=0;" edge="1" parent="1" source="A418blZApA_BEnXzXfuT-17" target="A418blZApA_BEnXzXfuT-10">
          <mxGeometry relative="1" as="geometry" />
        </mxCell>
        <mxCell id="A418blZApA_BEnXzXfuT-19" style="edgeStyle=orthogonalEdgeStyle;rounded=0;orthogonalLoop=1;jettySize=auto;html=1;exitX=0.5;exitY=0;exitDx=0;exitDy=0;entryX=0.5;entryY=1;entryDx=0;entryDy=0;" edge="1" parent="1" source="A418blZApA_BEnXzXfuT-17" target="A418blZApA_BEnXzXfuT-3">
          <mxGeometry relative="1" as="geometry" />
        </mxCell>
        <mxCell id="A418blZApA_BEnXzXfuT-22" style="edgeStyle=orthogonalEdgeStyle;rounded=0;orthogonalLoop=1;jettySize=auto;html=1;exitX=0.5;exitY=1;exitDx=0;exitDy=0;entryX=0.5;entryY=0;entryDx=0;entryDy=0;" edge="1" parent="1" source="A418blZApA_BEnXzXfuT-17" target="A418blZApA_BEnXzXfuT-21">
          <mxGeometry relative="1" as="geometry" />
        </mxCell>
        <mxCell id="A418blZApA_BEnXzXfuT-28" style="edgeStyle=orthogonalEdgeStyle;rounded=0;orthogonalLoop=1;jettySize=auto;html=1;exitX=0;exitY=0.5;exitDx=0;exitDy=0;entryX=1;entryY=0.5;entryDx=0;entryDy=0;" edge="1" parent="1" source="A418blZApA_BEnXzXfuT-17" target="A418blZApA_BEnXzXfuT-27">
          <mxGeometry relative="1" as="geometry" />
        </mxCell>
        <mxCell id="A418blZApA_BEnXzXfuT-17" value="CONCEPTOS BÁSICOS DE LA TEORÍA DE SISTEMAS&amp;nbsp;" style="rounded=1;whiteSpace=wrap;html=1;fillColor=#0050ef;fontColor=#ffffff;strokeColor=#001DBC;fontStyle=3" vertex="1" parent="1">
          <mxGeometry x="760" y="270" width="200" height="130" as="geometry" />
        </mxCell>
        <mxCell id="A418blZApA_BEnXzXfuT-25" style="edgeStyle=orthogonalEdgeStyle;rounded=0;orthogonalLoop=1;jettySize=auto;html=1;exitX=0.75;exitY=1;exitDx=0;exitDy=0;entryX=0.5;entryY=0;entryDx=0;entryDy=0;" edge="1" parent="1" source="A418blZApA_BEnXzXfuT-21" target="A418blZApA_BEnXzXfuT-24">
          <mxGeometry relative="1" as="geometry" />
        </mxCell>
        <mxCell id="A418blZApA_BEnXzXfuT-26" style="edgeStyle=orthogonalEdgeStyle;rounded=0;orthogonalLoop=1;jettySize=auto;html=1;exitX=0.25;exitY=1;exitDx=0;exitDy=0;entryX=0.5;entryY=0;entryDx=0;entryDy=0;" edge="1" parent="1" source="A418blZApA_BEnXzXfuT-21" target="A418blZApA_BEnXzXfuT-23">
          <mxGeometry relative="1" as="geometry" />
        </mxCell>
        <mxCell id="A418blZApA_BEnXzXfuT-21" value="&lt;b&gt;ATRIBUTO: &lt;/b&gt;Cualidad o característica de un sistema o sus elementos&amp;nbsp;" style="rounded=1;whiteSpace=wrap;html=1;fillColor=#0050ef;fontColor=#ffffff;strokeColor=#001DBC;" vertex="1" parent="1">
          <mxGeometry x="780" y="440" width="160" height="80" as="geometry" />
        </mxCell>
        <mxCell id="A418blZApA_BEnXzXfuT-23" value="&lt;b&gt;Entropía: &lt;/b&gt;Medida del desorden o la falta de organización en un sistema" style="rounded=1;whiteSpace=wrap;html=1;fillColor=#0050ef;fontColor=#ffffff;strokeColor=#001DBC;" vertex="1" parent="1">
          <mxGeometry x="710" y="560" width="130" height="70" as="geometry" />
        </mxCell>
        <mxCell id="A418blZApA_BEnXzXfuT-24" value="&lt;b&gt;Sinergia: &lt;/b&gt;La cooperacion entre elementos que resulta en un efecto combinado mayor que la suma de sus partes&amp;nbsp;" style="rounded=1;whiteSpace=wrap;html=1;fillColor=#0050ef;fontColor=#ffffff;strokeColor=#001DBC;" vertex="1" parent="1">
          <mxGeometry x="880" y="560" width="140" height="80" as="geometry" />
        </mxCell>
        <mxCell id="A418blZApA_BEnXzXfuT-32" style="edgeStyle=orthogonalEdgeStyle;rounded=0;orthogonalLoop=1;jettySize=auto;html=1;exitX=0;exitY=0.25;exitDx=0;exitDy=0;entryX=1;entryY=0.5;entryDx=0;entryDy=0;" edge="1" parent="1" source="A418blZApA_BEnXzXfuT-27" target="A418blZApA_BEnXzXfuT-31">
          <mxGeometry relative="1" as="geometry" />
        </mxCell>
        <mxCell id="A418blZApA_BEnXzXfuT-33" style="edgeStyle=orthogonalEdgeStyle;rounded=0;orthogonalLoop=1;jettySize=auto;html=1;exitX=0;exitY=0.75;exitDx=0;exitDy=0;entryX=1;entryY=0.5;entryDx=0;entryDy=0;" edge="1" parent="1" source="A418blZApA_BEnXzXfuT-27" target="A418blZApA_BEnXzXfuT-30">
          <mxGeometry relative="1" as="geometry" />
        </mxCell>
        <mxCell id="A418blZApA_BEnXzXfuT-27" value="&lt;b&gt;CIBERNETICA: &lt;/b&gt;Estudio de la comunicacion y control en los sistemas" style="rounded=1;whiteSpace=wrap;html=1;fillColor=#0050ef;fontColor=#ffffff;strokeColor=#001DBC;" vertex="1" parent="1">
          <mxGeometry x="560" y="297.5" width="160" height="75" as="geometry" />
        </mxCell>
        <mxCell id="A418blZApA_BEnXzXfuT-30" value="&lt;b&gt;Realimentación: &lt;/b&gt;Proceso en el que la salida de un sistema afecta su entrada para regular su funcionamiento" style="rounded=1;whiteSpace=wrap;html=1;fillColor=#0050ef;fontColor=#ffffff;strokeColor=#001DBC;" vertex="1" parent="1">
          <mxGeometry x="380" y="370" width="140" height="90" as="geometry" />
        </mxCell>
        <mxCell id="A418blZApA_BEnXzXfuT-40" style="edgeStyle=orthogonalEdgeStyle;rounded=0;orthogonalLoop=1;jettySize=auto;html=1;exitX=0.5;exitY=1;exitDx=0;exitDy=0;entryX=0.5;entryY=0;entryDx=0;entryDy=0;" edge="1" parent="1" source="A418blZApA_BEnXzXfuT-31" target="A418blZApA_BEnXzXfuT-30">
          <mxGeometry relative="1" as="geometry" />
        </mxCell>
        <mxCell id="A418blZApA_BEnXzXfuT-31" value="&lt;b&gt;Información: &lt;/b&gt;Datos que se transmiten entre un sistema y su entorno para mantener el equilibrio y la adaptación&amp;nbsp;" style="rounded=1;whiteSpace=wrap;html=1;fillColor=#0050ef;fontColor=#ffffff;strokeColor=#001DBC;" vertex="1" parent="1">
          <mxGeometry x="380" y="240" width="140" height="80" as="geometry" />
        </mxCell>
      </root>
    </mxGraphModel>
  </diagram>
</mxfile>
